<?xml version="1.0" encoding="UTF-8"?>
<svg version="1.1" xmlns="http://www.w3.org/2000/svg" width="40" height="40">
<path d="M0 0 C13.2 0 26.4 0 40 0 C40 13.2 40 26.4 40 40 C26.8 40 13.6 40 0 40 C0 26.8 0 13.6 0 0 Z " fill="#F3F3F3" transform="translate(0,0)"/>
<path d="M0 0 C6.6 0 13.2 0 20 0 C21.155 2.083125 22.31 4.16625 23.5 6.3125 C23.86544922 6.96387939 24.23089844 7.61525879 24.60742188 8.28637695 C26.13326057 11.07985545 27 12.76988992 27 16 C26.23816406 16.7425 25.47632812 17.485 24.69140625 18.25 C21.6607683 21.34661701 20.55172186 24.00533896 18.9375 28 C16.57012856 33.30802621 14.22567393 36.08961619 8.75 38.375 C5.61460703 39.41747837 3.3042798 40 0 40 C0 26.8 0 13.6 0 0 Z " fill="#F7F7F7" transform="translate(0,0)"/>
<path d="M0 0 C6.6 0 13.2 0 20 0 C20 13.2 20 26.4 20 40 C18.42377366 37.63566048 17.15416239 35.42437268 15.8984375 32.89453125 C15.49415527 32.08282471 15.08987305 31.27111816 14.67333984 30.43481445 C14.2448877 29.56945068 13.81643555 28.70408691 13.375 27.8125 C12.47926396 26.0103683 11.58342917 24.20828569 10.6875 22.40625 C10.23890625 21.50261719 9.7903125 20.59898438 9.328125 19.66796875 C8.07988912 17.16048315 6.82343027 14.65737155 5.5625 12.15625 C5.0068335 11.05253052 5.0068335 11.05253052 4.43994141 9.92651367 C3.7404572 8.53796857 3.03965157 7.15008821 2.33740234 5.76293945 C0 1.11183697 0 1.11183697 0 0 Z " fill="#020202" transform="translate(20,0)"/>
<path d="M0 0 C6.27 0 12.54 0 19 0 C13.61932417 12.15634169 8.04954049 24.16205026 2 36 C1.34 37.32 0.68 38.64 0 40 C0 26.8 0 13.6 0 0 Z " fill="#020202" transform="translate(0,0)"/>
<path d="M0 0 C0.66 0.33 1.32 0.66 2 1 C1.34 1.86625 0.68 2.7325 0 3.625 C-2.19009872 7.32079159 -2.61146047 8.8071282 -2 13 C-1.36185318 16.27944883 -1.36185318 16.27944883 1 19 C4.56434908 20.70331726 8.20876519 21.90575566 12 23 C12 23.33 12 23.66 12 24 C0.78 24 -10.44 24 -22 24 C-17.63067293 20.72300469 -17.63067293 20.72300469 -13.875 20.1875 C-11.7855626 19.77217181 -11.7855626 19.77217181 -10 19 C-8.60738122 16.32778425 -8.60738122 16.32778425 -8 13 C-5.93048278 8.14897569 -3.48940763 3.98789444 0 0 Z " fill="#080808" transform="translate(25,16)"/>
<path d="M0 0 C0.66 0.33 1.32 0.66 2 1 C-0.31 3.97 -2.62 6.94 -5 10 C-5.33 9.34 -5.66 8.68 -6 8 C-4.02 5.36 -2.04 2.72 0 0 Z " fill="#2A2A2A" transform="translate(25,16)"/>
</svg>
